<?xml version="1.0" standalone="no"?>
<!DOCTYPE svg PUBLIC "-//W3C//DTD SVG 20010904//EN"
 "http://www.w3.org/TR/2001/REC-SVG-20010904/DTD/svg10.dtd">
<svg version="1.0" xmlns="http://www.w3.org/2000/svg"
 width="512.000000pt" height="512.000000pt" viewBox="0 0 512.000000 512.000000"
 preserveAspectRatio="xMidYMid meet">

<g transform="translate(0.000000,512.000000) scale(0.100000,-0.100000)"
fill="#000000" stroke="none">
<path d="M768 4679 c-124 -29 -237 -124 -296 -247 l-37 -77 -3 -1770 c-3
-1978 -8 -1836 68 -1953 47 -73 108 -126 190 -166 l65 -31 1806 0 1805 0 76
38 c92 45 167 122 212 217 l31 65 0 1800 0 1800 -22 55 c-46 111 -142 207
-253 253 l-55 22 -1775 2 c-1006 0 -1791 -3 -1812 -8z m2572 -856 l715 -409 2
-854 3 -855 -752 -428 -751 -428 -466 267 c-256 147 -591 339 -743 426 l-278
160 -2 636 c-1 351 -2 736 -2 856 l-1 219 745 427 745 428 35 -19 c19 -10 357
-202 750 -426z"/>
<path d="M1873 3728 l-683 -390 0 -776 0 -777 680 -388 c374 -214 686 -387
694 -385 7 2 315 176 685 388 l671 385 -2 779 -3 779 -655 374 c-360 206 -666
380 -680 387 -24 13 -60 -7 -707 -376z m1271 -215 c13 -45 135 -597 132 -600
-1 -2 -324 -2 -718 -1 l-714 3 65 308 66 307 582 0 c545 0 582 -1 587 -17z
m-196 -740 c-12 -32 -40 -106 -63 -165 l-42 -107 18 -178 c10 -98 19 -181 19
-185 0 -5 -135 -8 -301 -8 l-301 0 6 28 c3 15 13 98 21 184 l17 158 -62 157
c-35 87 -64 161 -67 166 -2 4 172 7 386 7 l391 0 -22 -57z m-918 -169 l170
-106 0 -197 1 -196 134 -124 135 -125 0 -55 0 -56 -129 -117 -129 -118 -109 0
-109 0 -264 446 c-144 246 -263 454 -264 462 -1 14 366 292 386 292 4 0 84
-48 178 -106z m1484 -39 c135 -99 186 -142 183 -154 -2 -9 -122 -214 -265
-456 l-260 -440 -109 -3 -108 -3 -127 113 -128 113 0 62 0 61 130 123 130 122
0 196 1 196 167 107 c92 58 174 105 183 104 9 -2 101 -65 203 -141z"/>
</g>
</svg>
